<svg xmlns="http://www.w3.org/2000/svg" pointer-events="none" class="leaflet-zoom-animated" viewBox="-523 211 1202 640"><g><path class="leaflet-interactive" stroke="#201920" stroke-opacity="1" stroke-width="2" stroke-linecap="round" stroke-linejoin="round" fill="none" d="M-199 530L-200 523L-203 520L-198 517L-199 514L-196 509L-192 509L-189 506L-187 506L-187 503L-184 504L-179 501L-177 506L-171 504L-171 506L-167 502L-166 497L-164 495L-153 495L-154 494L-151 493L-150 490L-145 489L-136 483L-127 480L-125 476L-127 470L-122 466L-124 466L-124 464L-120 463L-120 457L-124 449L-124 439L-127 436L-129 437L-128 433L-124 433L-123 431L-117 431L-109 427L-106 430L-103 429L-100 431L-99 428L-103 425L-103 423L-94 397L-90 399L-89 398L-85 401L-75 401L-72 403L-69 400L-67 400L-64 397L-66 381L-62 376L-54 375L-51 369L-52 366L-50 364L-39 364L-39 368L-41 369L-29 382L-25 384L-20 383L-17 387L-15 386L-13 389L-11 389L-9 397L-4 402L-3 405L-3 410L-5 412L-3 416L-7 421L-7 426L-5 430L10 433L23 433L39 444L47 445L46 448L49 452L52 461L58 469L67 468L93 472L108 470L117 472L122 477L129 478L143 484L150 482L150 486L156 487L158 484L184 473L205 474L214 471L220 466L220 464L224 460L231 457L235 453L229 444L230 439L235 432L240 432L244 436L254 438L260 434L264 427L274 427L283 422L287 413L291 411L297 411L296 410L298 407L300 409L307 405L313 406L313 404L316 407L324 407L326 405L324 398L321 397L317 390L312 388L310 384L302 383L297 390L291 386L284 386L280 389L276 385L275 381L279 379L279 375L282 370L281 369L289 352L301 358L311 350L315 350L319 346L317 342L321 336L321 332L324 329L327 320L335 311L333 307L335 303L332 301L327 302L327 298L329 298L330 295L336 289L344 288L351 285L359 286L363 284L375 287L377 290L381 292L384 290L389 292L392 295L391 296L393 296L395 299L394 301L399 305L398 307L400 307L398 309L401 310L401 317L403 319L402 320L404 322L404 326L406 326L405 329L409 335L410 344L413 345L412 352L416 357L426 356L426 358L429 360L434 359L435 362L436 361L439 364L438 365L443 369L448 369L446 373L447 376L449 376L450 379L448 383L452 389L469 389L470 386L473 385L476 381L479 382L488 377L495 378L496 376L498 376L495 379L493 379L492 383L495 389L487 396L488 399L486 401L486 407L484 409L485 412L480 419L480 423L476 426L476 430L474 433L462 428L455 435L454 434L452 436L455 449L455 459L453 465L445 469L447 473L443 469L443 467L439 465L437 473L435 475L433 473L428 480L418 481L421 486L419 490L411 488L410 489L408 487L407 488L407 484L403 484L401 486L401 490L394 497L386 501L383 503L384 504L382 504L376 509M-143 625L-146 621L-147 616L-143 614L-141 618L-137 616L-137 611L-139 608L-138 607L-143 603L-144 596L-140 592L-143 589L-147 589L-149 587L-151 575L-158 576L-168 572L-168 570L-173 571L-172 570L-175 567L-174 562L-176 559L-184 554L-187 555L-187 553L-190 554L-192 552L-187 551M177 752L175 752L175 748L173 746L177 741L171 741L169 739L166 740L162 738L159 734L156 737L154 737L152 741L148 743L146 741L144 745L141 742L139 742L139 744L137 742L133 746L128 742L124 746L120 747L118 745L117 752L119 754L119 762L116 760L113 761L113 757L111 754L106 758L102 758L100 756L101 755L98 754L98 750L90 750L89 749L91 747L90 746L92 745L91 742L93 738L88 738L86 736L86 730L84 728L86 726L77 725L75 727L71 727L73 725L71 717L74 716L73 713L78 708L78 706L81 707L81 705L84 704L83 701L85 695L84 681L83 682L81 680L81 682L79 680L78 674L76 674L76 672L74 672L73 669L70 670L68 674L69 677L65 679L56 673L51 672L46 674L45 677L33 682L29 686L29 688L25 690L14 689L9 691L9 685L8 683L3 681L4 678L1 675L-2 676L-2 678L-6 675L-14 673L-20 674L-21 677L-25 680L-25 684L-27 686L-29 683L-29 675L-35 677L-36 676L-36 678L-48 678L-53 675L-57 677L-58 674L-60 676L-59 677L-61 677L-64 672L-70 672L-71 667L-73 669L-76 666L-78 666L-82 659L-86 659L-85 660L-88 661L-92 655L-97 654L-100 650L-102 650L-105 647L-105 645L-106 646L-112 644L-115 649L-114 650L-116 650L-118 646L-129 641L-132 637L-139 637L-140 634L-143 633L-143 625M190 757L184 755L183 756L179 754L179 752L177 752M205 821L211 833M316 824L316 837M326 788L320 800M348 755L340 766M355 733L358 719" id="国界"/><path class="leaflet-interactive" stroke="#201920" stroke-opacity="1" stroke-width="2" stroke-linecap="butt" stroke-linejoin="round" stroke-dasharray="4,4" stroke-dashoffset="4" fill="none" d="M-187 551L-184 550L-184 548L-187 545L-187 534L-190 531L-195 530L-197 532L-199 530" id="争议"/><path class="leaflet-interactive" stroke="gray" stroke-opacity="1" stroke-width="1" stroke-linecap="round" stroke-linejoin="round" stroke-dasharray="8,4,4,4" fill="none" d="M253 749L254 750L253 749M261 745L260 744L256 748L257 750L264 750L263 744L261 745" id="港澳"/><path class="leaflet-interactive" stroke="#4190da" stroke-opacity="1" stroke-width="1" stroke-linecap="round" stroke-linejoin="round" fill="none" d="M259 747L257 747L258 746L254 742L255 745L253 750L252 751L252 749L251 752L249 752L250 753L247 750L246 753L245 752L240 755L237 754L233 757L232 756L221 759L220 761L215 763L219 770L216 773L212 773L209 768L209 762L211 758L208 757L204 759L202 758L202 756L197 755L192 758L192 756L190 757M217 762L217 762M217 762L219 764L215 764L217 762M253 749L253 749M259 747L259 747M259 747L259 747M259 747L259 747M325 693L322 694L324 694L326 697L322 699L323 703L322 706L320 706L322 708L324 706L325 707L323 709L322 708L322 710L322 708L318 708L317 709L319 711L317 711L316 714L317 713L315 713L315 711L315 715L313 715L311 717L313 717L310 720L305 719L305 724L297 732L291 732L290 737L289 736L287 740L283 740L280 742L277 741L275 743L271 741L269 745L266 744L266 742L264 746L262 744L260 746L263 746L261 748L259 747M325 693L325 693M347 662L345 662L347 664L346 667L344 667L346 671L344 673L343 672L340 676L338 676L340 678L337 677L334 681L333 686L329 688L329 690L327 690L328 693L324 695L327 692L325 693M343 557L341 559L336 560L337 563L336 562L333 567L330 568L329 565L328 568L330 568L322 575L322 577L319 580L320 581L317 582L317 584L319 586L320 585L321 588L330 593L335 604L337 614L343 618L343 620L348 625L348 628L340 625L338 627L342 630M342 630L349 636L349 640L351 642L348 639L338 642L346 650L349 650L351 652L347 654L349 656L349 661M343 557L343 557M343 557L343 557M353 520L350 523L350 525L349 524L347 526L346 525L346 527L340 529L339 528L339 526L344 525L344 521L346 521L341 520L340 517L343 516L345 512L347 512L349 508L348 507L350 507L352 503L347 498L338 498L338 500L336 500L332 508L328 510L327 509L321 512L321 514L319 514L319 519L314 524L311 523L309 527L304 522L302 524L302 528L301 527L299 531L301 535L303 534L303 537L310 539L313 538L317 543L318 542L318 544L314 547L315 550L317 550L319 553L324 552L324 549L326 549L329 546L329 544L335 542L341 546L342 545L344 548L350 546L352 548L357 549L354 554L356 553L355 556L354 555L352 557L348 555L344 558L343 557M343 557L343 557M347 662L347 662M347 662L347 662M347 662L347 662M349 661L347 662M349 661L349 661M351 650L351 650M351 650L351 650M351 650L351 650M353 651L351 650M351 650L349 650L348 648L352 648L353 651M353 651L353 651M353 647L354 646L353 647M353 647L352 646L353 647M353 520L353 520M376 509L376 511L373 514L364 514L353 520M354 640L354 640M354 640L355 641L354 640M356 639L356 639M199 756L199 756M202 763L202 763M206 777L206 777M208 798L197 794L197 784L205 777L221 774L224 776L225 780L220 784L218 791L208 798M217 767L217 767M217 762L217 762M219 763L217 761L219 761L219 763M219 772L219 772M220 764L219 765L220 764M226 826L226 826M229 811L230 810L229 811M230 818L230 818M230 818L230 818M231 817L231 817M231 820L231 822L231 820M231 817L231 817M232 817L232 817M232 821L233 820L232 821M232 818L233 817L232 818M233 823L233 823M235 820L236 819L235 820M238 815L238 815M238 827L238 827M238 812L238 812M239 813L239 813M239 814L239 814M240 820L240 820M240 755L241 756L240 755M241 824L240 823L242 823L241 824M241 818L242 817L241 818M242 756L242 756M243 819L243 819M243 755L242 756L243 755M243 820L243 820M244 816L244 816M244 756L244 754L244 756M245 756L245 756M245 814L245 814M247 782L247 782M247 753L247 753M248 752L248 752M248 753L248 753M249 752L249 752M253 750L253 750M254 752L254 752M255 828L255 828M255 751L255 751M255 752L255 752M255 752L256 751L255 752M256 746L256 746M256 750L256 750M256 786L257 785L256 786M256 749L258 747L259 748L256 749M256 830L256 830M257 827L257 827M257 826L258 825L257 826M258 830L258 830M259 823L260 824L259 823M260 749L259 748L260 749M260 752L260 752M260 748L261 749L260 748M260 751L260 751M261 823L261 823M261 751L261 751M261 830L261 830M261 749L261 749M261 829L261 829M262 745L262 745M262 747L262 747M263 823L263 823M263 828L264 829L263 828M265 828L265 828M265 746L265 746M266 822L267 821L266 822M267 825L267 825M269 823L268 824L269 823M274 848L274 848M280 764L280 764M280 762L282 763L280 762M289 819L289 819M289 767L289 767M290 766L291 769L289 768L291 768L290 766M294 733L292 733L294 733M300 833L302 834L300 833M304 721L304 721M305 721L304 720L306 720L305 721M306 722L307 721L306 722M308 720L309 721L307 722L308 720M311 525L311 525M313 523L313 523M313 523L314 524L313 523M320 736L320 736M320 712L322 712L320 712M321 734L321 734M321 731L321 731M321 731L321 731M322 706L322 706M322 700L322 700M322 732L321 733L322 732M322 706L322 706M323 706L323 706M323 694L322 693L324 693L323 694M323 710L323 710M323 710L323 710M324 694L324 694M325 707L325 707M326 700L325 699L326 700M326 702L326 702M326 733L327 732L326 733M326 699L326 699M327 695L327 695M328 695L328 695M328 694L328 694M328 691L328 691M328 572L328 572M330 690L330 690M330 747L330 747M330 690L331 689L330 690M331 543L331 543M332 697L332 697M333 541L334 540L333 541M334 752L333 747L329 744L327 738L327 730L338 714L344 710L348 712L348 720L345 725L342 739L337 745L336 753L334 752M334 540L334 540M335 541L335 541M335 538L335 538M335 504L336 503L335 504M335 536L336 535L335 536M337 534L337 534M337 535L337 535M338 563L337 562L338 563M338 676L338 676M338 683L338 683M339 677L338 676L339 677M340 676L340 676M342 626L349 630L344 630L340 627L341 625L342 626M343 616L343 616M343 743L344 744L343 743M344 750L345 751L344 750M345 752L345 752M345 631L344 630L345 631M346 662L346 662M346 667L346 667M347 633L344 631L346 631L347 633M347 632L350 633L347 632M347 649L347 649M347 666L348 665L347 666M347 666L347 666M348 670L348 670M348 649L347 650L348 649M348 633L348 633M348 670L348 670M348 709L348 709M348 716L348 716M348 648L349 649L348 648M348 634L349 635L348 634M349 646L349 646M349 661L349 661M350 653L349 654L350 653M350 651L350 651M350 648L349 647L350 648M350 642L350 642M350 651L350 651M350 650L350 650M350 650L350 650M351 650L351 650M351 647L351 647M351 646L352 647L351 646M351 647L351 647M351 658L351 658M351 654L350 653L351 654M351 654L351 654M352 651L351 650L352 651M352 652L353 653L352 652M352 652L353 651L352 652M352 654L351 653L353 653L352 654M353 651L354 652L353 651M353 523L353 523M354 650L354 650M354 645L353 644L354 645M355 644L355 644M355 522L355 522M356 521L357 522L356 521M356 641L356 641M357 522L357 522M358 648L358 648M358 525L358 525M358 641L358 641M359 641L358 640L359 641M361 517L360 518L361 517M361 519L361 519M362 525L363 524L362 525M364 705L367 706L363 706L364 705M367 704L367 704M367 702L369 702L367 702M367 707L368 706L367 707M367 705L367 705M368 706L368 706M369 514L369 514M377 702L379 702L377 702" id="海洋"/><path class="leaflet-interactive" stroke="#747569" stroke-opacity="0.6" stroke-width="1" stroke-linecap="round" stroke-linejoin="round" fill="none" d="M-18 567L-31 562L-43 564L-45 562L-47 564L-57 566L-60 571L-65 573L-69 571L-76 574L-79 577L-88 578L-93 577L-95 573L-98 574L-101 572L-102 575L-104 575L-106 577L-105 578L-108 579L-116 577L-126 578L-125 579L-129 583L-128 584L-130 584L-130 588L-132 590L-139 590L-140 592M73 616L70 615L69 620L68 619L66 623L62 623L62 628L59 627L58 624L56 624L55 629L55 627L53 626L51 628L49 626L48 627L46 623L47 622L44 619L43 620L45 618L41 618L37 614L34 617L25 617L19 613L11 614L2 608L-2 609L-11 606L-12 604L-14 604L-14 602L-19 596L-16 592L-18 588L-17 583L-20 584L-21 578L-17 572L-22 569L-18 567M12 525L-2 530L-8 530L-14 534L-11 537L-10 535L-9 544L-7 544L-1 550L0 553L-7 557L-7 559L-3 561L-2 566L-4 568L-14 565L-18 567M119 603L117 603L116 600L113 601L112 598L109 597L108 592L109 591L116 593L118 595L121 595L122 592L124 592L124 590L121 589L121 585L126 580L125 576L126 577L127 574L131 574L129 572L131 570L132 571L132 567L134 565L131 564L131 562L128 559L130 557L127 554L129 552L122 546L122 544L119 545L116 542L114 543L111 540L109 540L107 536L103 536L99 532L101 536L100 537L85 524L83 526L80 525L77 529L66 522L64 524L65 531L61 533L61 537L58 536L56 538L50 534L48 536L44 534L37 535L35 529L30 530L28 528L29 527L22 527L21 523L12 525M58 469L53 473L55 480L52 483L48 484L45 487L43 484L39 488L37 488L28 497L28 501L18 502L16 516L12 522L12 525M148 548L146 548L141 543L137 542L139 536L138 535L143 531L144 527L147 526L145 519L138 520L133 524L127 522L123 523L120 524L122 528L119 530L114 529L112 526L113 525L110 526L108 524L108 519L104 520L102 516L95 512L92 512L101 507L102 501L99 497L89 498L89 500L87 499L85 500L85 502L84 499L82 499L83 501L80 502L80 497L72 489L74 486L67 468M89 660L87 654L87 640L83 634L83 632L86 632L82 628L81 623L78 619L73 616M119 603L117 609L114 606L111 607L113 613L111 615L106 616L103 613L101 615L97 609L96 614L87 609L80 595L76 595L75 593L72 594L73 595L69 599L69 602L73 604L70 608L71 609L69 613L73 616M78 674L79 671L81 675L84 672L83 663L85 663L86 666L88 662L87 661L89 660M159 680L158 675L151 678L148 675L150 673L147 671L148 668L143 667L143 671L138 674L138 679L134 684L132 683L131 688L134 695L130 699L128 697L123 701L118 698L117 699L118 698L115 695L116 692L114 692L115 691L110 685L108 679L106 677L103 678L103 680L101 678L99 674L101 672L96 667L96 665L94 665L92 673L89 670L89 660M161 611L159 615L153 615L151 613L150 614L147 611L149 610L149 606L146 603L146 601L138 599L137 600L131 592L128 595L126 595L126 597L123 596L127 603L124 604L123 607L120 608L119 607L121 604L119 603M186 542L183 541L182 538L173 536L178 526L176 520L174 520L171 521L166 528L166 536L164 538L164 543L148 548M148 548L152 548L151 551L158 554L158 560L161 564L159 568L160 570L171 579L173 577L172 572L175 573L178 568L177 565L172 564L173 563L171 560L173 560L175 552L181 553M159 680L158 684L157 683L155 685L151 685L149 683L145 685L145 683L140 687L140 689L142 689L141 693L143 695L149 693L152 696L150 698L151 699L149 701L150 702L148 706L150 708L151 707L150 708L154 712L153 711L151 713L152 714L150 717M150 717L152 723L152 721L156 721L159 726L168 725L169 732L164 733L162 737M207 701L205 705L200 705L202 705L201 708L199 706L197 710L194 707L191 710L191 712L188 713L184 711L181 707L179 707L179 711L170 714L167 719L158 714L153 719L150 717M171 669L167 666L163 670L163 672L171 676L170 679L159 680M181 553L182 556L187 557L191 561L192 560L197 563L197 577L195 579L188 578L186 580L188 582L186 584L174 581L174 585L171 588L175 592L173 592L174 594L172 596L174 601L172 603L172 601L168 601L164 605L167 608L166 611L161 611M196 621L188 621L183 616L181 618L179 616L180 615L176 613L172 615L165 612L163 614L161 611M204 670L202 674L199 673L199 671L196 670L196 667L194 667L193 662L189 663L184 660L183 665L181 666L181 664L179 664L175 670L172 665L173 668L171 669M171 669L169 664L164 663L164 659L160 659L161 658L159 656L164 651L164 649L162 648L165 645L167 645L169 647L174 646L176 650L179 649L184 642L183 640L187 638L188 639L190 637L190 633L192 632L192 630L196 628L196 626L193 625L193 623L195 623L194 621L196 621M181 553L183 544L186 542M225 520L226 517L224 517L220 521L216 519L214 519L215 520L213 522L211 521L212 524L210 524L209 527L202 533L202 540L201 541L199 539L199 545L191 545L188 542L186 542M196 621L204 627L208 627M208 627L210 627L209 628L214 631L214 639L211 638L206 643L203 643L203 641L201 641L199 643L198 642L194 644L196 646L196 652L194 652L196 654L196 652L198 652L201 658L200 659L201 658L204 661M204 661L204 670M257 662L254 661L255 656L253 653L248 657L246 657L246 653L244 653L244 655L243 654L239 656L235 652L228 651L223 648L218 649L220 653L219 654L211 653L207 655L204 661M207 701L207 699L204 698L206 694L205 693L207 691L206 690L208 689L206 687L202 687L200 689L199 688L207 681L205 679L206 672L204 672L204 670M236 717L232 717L230 719L228 712L224 715L223 714L230 703L226 702L227 699L225 697L219 697L219 699L216 702L213 701L213 699L210 702L211 703L207 701M224 606L221 609L219 607L216 608L208 606L206 608L210 609L210 611L212 611L215 614L213 616L208 615L208 627M210 758L209 758M210 758L212 753L217 752L216 749L221 748L221 744L228 741L228 733L234 727L236 723L234 719L236 717M211 774L213 774M214 774L217 773M217 588L215 587L215 583L220 574L218 570L217 555L222 546L218 540L218 537L223 532L224 525L226 524L227 521L225 520M217 588L217 592L220 595L219 598L222 599L224 606M217 588L230 585L234 581L236 581L236 579L243 580L251 576L254 573L253 572L255 568L255 563M218 773L219 772M274 631L273 632L272 629L268 631L264 629L264 626L261 627L260 625L258 627L258 625L255 624L255 618L251 620L249 618L238 619L235 616L234 617L230 615L224 606M224 607L224 607M260 500L259 503L254 504L252 506L250 506L250 504L247 505L245 508L241 506L236 511L233 517L230 516L225 520M236 717L237 712L243 712L243 714L246 715L247 711L245 711L248 708L252 710L257 709M275 566L271 566L269 568L267 566L255 563M255 563L252 559L256 555L255 552L260 545L255 537L253 537L253 533L256 529L255 526L258 523L260 525L265 517L262 513L260 513L261 512L257 510L264 506L261 504L260 500M282 652L280 654L275 652L273 655L272 654L269 657L268 656L268 658L262 658L257 662M257 709L258 702L259 700L261 700L258 699L259 694L256 693L257 684L254 685L253 682L256 676L258 676L258 674L261 671L259 669L260 666L257 662M257 709L258 708L258 711L264 709L266 711L266 713L262 715L263 716L261 718L263 720L272 717L279 720L278 716L280 715M318 491L308 491L305 485L305 483L307 483L307 479L306 480L303 477L304 474L301 471L297 471L297 473L293 473L291 475L290 481L287 482L285 480L281 484L280 481L276 483L273 486L274 487L268 487L268 479L264 478L264 480L260 484L261 487L257 489L258 492L256 494L260 500M283 588L283 590L286 593L287 592L288 597L283 600L281 596L278 595L276 597L277 602L273 604L273 608L268 609L273 616L277 618L279 616L280 617L280 625L278 627L277 626L274 629L274 631M282 652L282 648L278 641L281 637L274 631M302 536L301 539L299 539L297 542L289 543L286 547L285 546L283 548L284 549L282 549L279 552L280 553L273 560L275 566M283 588L275 588L275 586L273 584L272 585L271 582L267 582L269 578L271 576L272 577L274 573L282 567L274 571L273 569L275 566M280 715L279 712L281 710L281 706L283 704L282 703L284 703L286 701L285 698L287 696L288 697L287 690L294 686L294 682L292 682L292 680L293 681L298 676L301 679L301 677L307 675L308 672M294 732L291 725L291 721L289 719L290 718L287 719L285 717L286 716L283 717L284 716L280 715M306 658L304 656L300 656L295 651L293 653L294 654L290 656L288 654L291 651L289 649L284 653L282 652M285 587L283 588M318 582L314 582L313 585L311 587L310 586L307 591L305 591L305 587L301 587L301 589L298 590L296 588L294 590L291 583L286 584L285 587M322 635L318 633L313 634L312 633L314 630L310 626L309 627L308 624L308 622L311 621L312 618L310 616L311 615L316 617L317 612L314 610L312 614L308 614L306 612L306 608L303 607L306 600L300 600L300 596L294 595L290 590L288 590L285 587M297 507L295 505L297 501L292 500L289 497L289 495L285 497L286 499L278 503L280 508L274 511L276 513L275 516L279 518L284 517L284 519L286 519L285 518L287 516L290 516M299 531L296 532L289 529L289 525L291 525L290 516M291 515L290 516M291 515L294 516L295 509M295 509L289 511L292 514L291 515M294 732L295 733M297 507L295 509M296 734L297 735M297 507L301 509L301 511L299 511L298 514L300 518L303 517L302 520L304 522M306 658L314 651L314 645L320 645L318 643L322 639L322 635M306 658L304 662L308 666L308 672M332 687L328 683L324 685L321 680L318 683L314 683L314 679L312 677L313 674L311 672L308 672M318 491L320 488L318 486L318 476L321 475L325 477L326 483L328 485L328 483L334 477L338 477L342 473L345 474L350 469L353 470L354 467L356 469L363 468L362 467L364 465L368 464L368 459M325 511L323 509L322 504L317 502L317 500L316 501L313 498L318 491M337 636L334 637L334 639L332 640L330 638L331 637L328 638L324 634L322 635M334 688L335 689M336 534L339 534M349 628L343 627L341 625L339 627L342 629L339 632L340 633L336 635L337 636M341 641L337 636M342 641L344 641M365 401L364 404L363 403L362 405L360 405L358 401L359 400L356 399L354 395L374 375L376 377L375 378L377 382L378 381L378 373L381 364L386 363L386 347L388 347L387 346L389 342L393 339L392 336L395 333L395 331L389 322L384 319L384 321L380 325L377 324L377 326L371 326L369 324L364 327L361 325L360 326L356 312L358 308L356 308L351 303L348 308L340 301L345 297L347 293L343 288M344 641L345 641M347 640L348 640M349 639L351 639M353 638L355 638M357 638L358 637M455 457L450 458L447 455L445 455L444 450L440 452L439 449L433 453L432 452L431 455L427 457L423 447L423 443L421 441L420 444L418 444L419 446L415 448L411 442L412 441L410 439L406 439L407 434L405 431L401 429L395 431L391 428L390 425L388 427L384 427L384 425L378 427L372 421L373 420L371 418L371 412L365 414L362 413M362 413L360 408L368 405L368 403L367 402L367 404L365 401M362 413L361 416L358 416L358 422L356 422L353 418L352 421L348 417L346 417L347 418L345 421L349 423L352 430L350 432L350 440L353 446L355 446L361 441L362 444L364 445L364 449L367 455L364 456L364 458L368 459M365 401L365 401M365 401L365 401M365 401L365 401M368 459L369 458L372 461L373 460L377 467L381 463L382 464L381 465L386 475L385 476L389 478L387 480L387 486L389 486L389 490L392 493L390 497L391 498M166 577L167 576L166 577M207 692L207 692M246 653L246 653" id="省界"/><path class="leaflet-interactive" stroke="#8B908F" stroke-opacity="0.5" stroke-width="1" stroke-linecap="butt" stroke-linejoin="bevel" fill="#eee" fill-opacity="0.5" fill-rule="evenodd" d="M296 502L298 501L291 500L289 495L286 496L286 498L278 503L280 506L274 511L276 513L275 516L279 518L284 517L285 519L288 516L289 517L292 514L289 511L294 510L297 507L295 505L296 502z" id="北京市"/><path class="leaflet-interactive" stroke="#8B908F" stroke-opacity="0.5" stroke-width="1" stroke-linecap="butt" stroke-linejoin="bevel" fill="#eee" fill-opacity="0.5" fill-rule="evenodd" d="M301 520L303 518L300 518L298 514L298 512L301 511L301 509L298 507L294 510L294 516L290 516L291 525L289 525L289 529L296 532L299 531L301 529L300 528L302 528L302 524L304 522L302 520L298 520L300 519zM301 520L302 519L301 520z" id="天津市"/><path class="leaflet-interactive" stroke="#8B908F" stroke-opacity="0.5" stroke-width="1" stroke-linecap="butt" stroke-linejoin="bevel" fill="#eee" fill-opacity="0.5" fill-rule="evenodd" d="M298 501L295 502L295 506L301 510L298 511L300 516L299 517L303 517L302 520L309 527L311 523L314 524L319 519L318 518L320 513L325 510L322 507L321 503L318 503L317 500L316 501L313 498L318 491L308 491L305 485L306 483L307 484L307 480L305 480L304 475L300 471L292 473L290 481L287 482L285 480L281 484L279 481L273 486L274 487L268 487L268 479L264 478L264 480L260 484L261 487L257 488L257 494L261 504L264 505L258 510L259 512L263 513L264 519L260 525L257 524L256 530L253 532L253 536L257 539L260 545L255 552L256 556L252 558L253 562L259 565L263 565L265 567L268 566L268 568L271 565L273 567L275 566L273 561L279 555L278 554L281 549L283 549L284 546L286 548L290 542L297 542L301 538L303 535L301 535L298 531L296 532L289 529L289 525L291 525L290 516L288 516L285 519L283 517L278 518L276 516L275 517L276 513L274 511L280 507L278 502L286 499L286 496L289 495L289 497L292 500L298 501zM295 509L289 511L292 514L292 516L294 516L294 510zM301 520L298 520L301 520zM313 523L313 524z" id="河北省"/><path class="leaflet-interactive" stroke="#8B908F" stroke-opacity="0.5" stroke-width="1" stroke-linecap="butt" stroke-linejoin="bevel" fill="#eee" fill-opacity="0.5" fill-rule="evenodd" d="M217 588L230 585L233 582L236 582L237 579L244 580L254 573L253 572L255 568L255 562L253 562L252 559L255 556L255 553L260 545L256 538L253 537L253 533L256 529L255 526L259 523L259 525L261 524L265 517L257 510L264 506L261 504L259 500L257 504L256 503L252 506L248 505L245 508L241 506L239 507L233 517L230 516L225 520L226 523L223 532L218 537L222 545L220 551L217 554L219 575L215 584L216 588z" id="山西省"/><path class="leaflet-interactive" stroke="#8B908F" stroke-opacity="0.5" stroke-width="1" stroke-linecap="butt" stroke-linejoin="bevel" fill="#eee" fill-opacity="0.5" fill-rule="evenodd" d="M67 468L74 486L72 488L79 497L80 502L83 501L84 499L85 502L85 500L87 499L89 501L89 499L99 497L102 501L101 507L93 512L102 515L104 520L107 519L109 524L108 525L113 525L112 526L115 529L119 530L122 527L120 524L126 522L132 524L138 520L145 519L147 526L143 531L138 534L139 538L137 539L138 542L145 548L163 544L165 542L164 538L166 536L165 533L168 524L174 520L176 520L178 525L173 535L174 537L181 538L184 541L190 543L190 545L199 545L199 539L201 541L202 540L200 537L212 523L211 522L215 521L215 519L217 521L221 521L222 518L224 517L226 517L225 520L228 519L229 516L233 517L235 515L237 509L240 506L245 508L247 505L251 506L259 502L259 498L256 494L258 492L257 489L261 488L260 484L264 480L264 478L267 479L269 482L268 487L274 487L273 486L279 481L282 484L285 480L287 482L290 481L291 475L293 473L301 471L304 474L303 477L305 478L305 480L307 480L307 484L305 484L307 489L312 491L318 491L320 489L318 486L318 478L320 475L322 477L325 477L324 478L327 485L336 476L339 477L342 473L345 474L350 469L353 470L353 468L357 468L359 470L363 467L363 465L368 464L368 459L364 457L366 457L366 453L362 441L357 445L352 445L352 441L350 439L350 431L352 429L349 423L345 421L347 419L346 417L348 417L351 420L354 419L357 422L359 419L358 416L362 415L360 408L368 405L366 401L364 401L364 404L363 403L362 405L360 405L358 401L359 400L354 396L355 392L363 387L375 375L377 382L378 381L378 375L381 364L386 363L385 350L387 348L386 347L388 347L387 346L389 342L393 339L392 336L395 333L395 329L393 329L389 322L384 319L384 321L380 325L378 324L376 326L371 326L369 324L364 327L361 325L359 323L356 312L358 308L351 304L347 308L340 301L345 297L347 293L346 291L343 288L337 289L327 299L328 302L332 301L334 303L333 306L335 308L335 313L327 320L325 324L326 325L321 332L321 336L317 342L319 346L315 350L311 350L301 358L289 352L281 369L282 370L279 374L279 379L275 381L276 385L280 389L284 386L290 386L297 390L302 383L309 384L324 398L326 404L323 407L317 407L314 404L311 406L308 405L301 409L298 407L296 411L287 412L284 420L277 426L265 427L262 432L254 438L245 436L240 432L235 432L229 442L230 447L234 450L235 454L224 460L217 469L204 474L184 473L164 481L158 484L156 487L150 486L150 482L143 484L130 478L123 477L117 472L109 470L93 472L74 470L68 468z" id="内蒙古自治区"/><path class="leaflet-interactive" stroke="#8B908F" stroke-opacity="0.5" stroke-width="1" stroke-linecap="butt" stroke-linejoin="bevel" fill="#eee" fill-opacity="0.5" fill-rule="evenodd" d="M367 514L374 514L374 512L382 503L383 504L391 498L390 497L392 492L387 485L387 481L389 478L385 476L386 475L384 473L382 463L379 465L379 467L377 467L376 463L372 461L370 457L368 459L367 465L363 465L361 469L354 468L354 470L348 470L346 474L343 473L338 477L337 476L333 478L328 483L328 485L325 481L325 477L321 475L318 477L318 486L320 487L320 489L318 490L314 498L316 501L317 500L318 503L321 502L322 506L326 511L332 507L336 500L338 500L337 499L340 498L347 497L349 501L351 501L352 503L350 505L351 506L348 507L348 510L340 518L343 521L346 520L344 522L345 523L339 527L339 529L344 528L345 525L348 526L347 525L349 525L351 523L350 522L354 519L366 514zM356 521L356 521zM353 523L354 522L353 523zM357 522L357 522zM357 525L358 525zM361 517L361 518zM355 522L355 522zM335 504L336 503L335 504zM361 519L361 519zM362 525L363 524L362 525zM369 514L369 514z" id="辽宁省"/><path class="leaflet-interactive" stroke="#8B908F" stroke-opacity="0.5" stroke-width="1" stroke-linecap="butt" stroke-linejoin="bevel" fill="#eee" fill-opacity="0.5" fill-rule="evenodd" d="M436 474L438 471L438 467L440 465L442 465L441 466L443 470L445 472L446 471L447 474L447 470L445 470L446 468L453 466L455 458L450 458L447 455L445 455L444 450L440 452L439 449L433 453L432 452L431 455L427 457L426 452L422 446L422 442L420 442L418 445L419 446L415 448L411 442L412 441L410 439L406 439L406 431L401 429L398 431L393 430L390 425L388 427L384 427L384 425L378 427L372 421L373 420L371 418L371 412L363 413L358 416L358 422L356 422L354 419L351 420L348 417L346 417L347 418L345 421L349 423L352 430L350 432L350 440L352 441L352 445L355 446L362 441L367 455L364 456L365 458L368 459L370 457L370 459L377 464L376 467L379 467L379 465L381 463L382 464L381 465L383 471L387 477L386 478L388 478L387 485L392 492L390 497L391 498L393 498L399 492L401 487L405 483L408 487L407 488L408 487L410 489L411 488L418 490L421 488L418 481L428 480L433 474L435 474z" id="吉林省"/><path class="leaflet-interactive" stroke="#8B908F" stroke-opacity="0.5" stroke-width="1" stroke-linecap="butt" stroke-linejoin="bevel" fill="#eee" fill-opacity="0.5" fill-rule="evenodd" d="M367 414L370 412L372 414L372 420L378 427L382 425L384 425L384 427L388 427L390 425L393 430L398 431L401 429L406 431L406 439L412 440L411 441L415 448L417 448L422 441L422 446L426 451L427 457L429 457L432 452L433 453L439 449L440 452L444 449L444 453L447 456L450 458L455 458L455 449L453 438L451 436L453 434L457 434L459 430L461 430L461 428L475 433L476 426L480 422L483 416L482 415L485 412L484 409L486 406L488 398L487 397L494 389L492 384L493 379L498 377L488 377L480 382L476 382L472 385L471 384L469 389L451 389L448 383L449 375L447 376L446 373L448 369L443 369L437 363L437 361L435 361L435 359L430 360L424 356L416 357L412 352L413 345L410 343L409 335L405 330L406 326L404 326L405 325L400 314L400 308L398 307L399 306L396 302L394 302L396 299L394 299L392 296L391 297L392 295L389 292L385 290L382 292L377 290L375 287L373 288L367 284L358 286L351 285L344 288L347 293L340 302L347 308L351 304L358 308L356 312L359 324L364 327L369 324L371 326L377 326L377 324L379 325L383 323L382 322L384 322L385 319L390 323L393 329L395 329L395 333L392 336L393 339L386 348L386 363L381 364L378 374L378 382L375 378L376 377L373 376L362 388L356 391L354 395L358 400L359 399L358 401L360 405L362 405L365 402L364 401L366 401L367 404L367 402L368 403L367 406L361 408L362 412L367 414z" id="黑龙江省"/><path class="leaflet-interactive" stroke="#8B908F" stroke-opacity="0.5" stroke-width="1" stroke-linecap="butt" stroke-linejoin="bevel" fill="#eee" fill-opacity="0.5" fill-rule="evenodd" d="M337 636L338 639L342 641L348 639L349 637L342 630L339 631L339 635L336 635zM349 628L343 627L341 625L339 627L347 631L349 630zM347 632L344 631L347 633zM347 632L350 633L347 632zM345 631L344 630zM348 634L349 634zM348 634L348 634z" id="上海市"/><path class="leaflet-interactive" stroke="#8B908F" stroke-opacity="0.5" stroke-width="1" stroke-linecap="butt" stroke-linejoin="bevel" fill="#eee" fill-opacity="0.5" fill-rule="evenodd" d="M296 588L294 590L291 583L285 584L285 586L290 591L292 591L292 594L297 596L298 595L301 598L301 600L305 600L303 606L304 608L306 607L306 611L309 614L312 614L314 610L318 615L316 617L314 615L310 615L312 619L308 622L308 624L314 629L312 632L313 634L325 634L328 638L331 637L330 638L332 640L337 636L336 635L338 635L338 633L342 629L339 627L341 625L343 627L349 628L348 625L343 621L343 618L337 614L337 610L330 592L320 587L321 586L317 584L317 581L314 582L313 585L311 587L310 586L307 591L304 588L305 587L301 587L301 589L298 590L296 588z" id="江苏省"/><path class="leaflet-interactive" stroke="#8B908F" stroke-opacity="0.5" stroke-width="1" stroke-linecap="butt" stroke-linejoin="bevel" fill="#eee" fill-opacity="0.5" fill-rule="evenodd" d="M309 672L313 674L312 677L314 679L314 683L318 683L322 680L324 685L328 683L332 687L334 684L334 680L340 677L338 677L338 675L339 674L339 676L344 672L345 673L344 668L347 665L345 662L349 662L348 654L351 651L345 649L342 645L340 645L338 642L341 641L337 636L334 637L334 639L332 640L330 638L331 637L328 638L325 634L323 634L321 638L322 639L318 643L320 645L314 645L314 651L304 660L309 672zM351 650L353 650L349 647L348 648L350 650zM352 647L351 648zM352 654L352 654zM354 640L355 641L354 640zM351 646L352 647L351 645zM353 647L353 646zM349 661L350 660zM353 651L354 652L353 651zM354 645L353 644zM347 666L348 665zM352 652L353 652zM347 662L347 662zM340 681L340 681zM348 640L350 642L349 639zM348 670L348 669zM351 654L350 653L351 654zM354 651L354 651zM356 641L355 641zM348 670L348 670zM350 648L349 648zM354 650L353 650zM347 650L348 649L347 650zM338 683L338 683zM349 661L349 660zM350 653L349 654zM348 648L349 649zM349 646L348 646zM351 650L351 650zM352 654L352 653zM339 679L339 679zM358 648L358 648zM352 646L353 646zM352 652L353 651zM358 641L358 640zM339 677L338 677zM340 676L340 676zM354 650L354 650zM359 641L358 640zM351 650L352 650zM349 650L350 650zM338 676L339 676zM354 651L354 651zM351 650L351 650z" id="浙江省"/><path class="leaflet-interactive" stroke="#8B908F" stroke-opacity="0.5" stroke-width="1" stroke-linecap="butt" stroke-linejoin="bevel" fill="#eee" fill-opacity="0.5" fill-rule="evenodd" d="M288 596L288 598L287 597L284 600L282 600L281 597L277 595L277 602L273 604L273 608L268 609L273 616L276 618L279 616L280 618L280 625L277 626L274 629L274 631L276 634L282 637L278 640L284 653L287 649L289 649L291 651L288 654L290 656L295 651L300 656L304 655L305 658L312 653L314 650L314 646L319 645L318 642L322 638L322 636L319 633L313 633L313 628L311 628L312 627L310 627L308 624L308 622L311 621L311 615L314 615L315 617L317 617L318 615L315 610L313 610L312 613L308 614L306 612L306 608L303 607L305 599L300 600L301 598L298 595L294 595L290 590L288 590L285 587L283 591L285 593L287 592L288 596zM313 630L314 630zM289 654L289 654zM275 617L275 617z" id="安徽省"/><path class="leaflet-interactive" stroke="#8B908F" stroke-opacity="0.5" stroke-width="1" stroke-linecap="butt" stroke-linejoin="bevel" fill="#eee" fill-opacity="0.5" fill-rule="evenodd" d="M315 714L314 711L316 711L316 713L316 711L319 712L319 710L317 709L318 708L322 708L322 710L325 707L324 706L322 708L320 706L323 701L322 700L325 697L324 694L322 694L323 692L324 693L327 691L326 694L324 695L328 692L327 691L331 687L331 685L329 683L325 685L321 680L319 683L313 682L313 674L309 672L305 676L301 678L299 678L299 676L296 677L296 679L292 681L294 685L291 689L287 691L288 697L287 696L285 698L286 699L282 704L279 713L282 716L286 716L285 717L287 719L290 718L289 719L291 721L292 728L296 732L305 724L305 720L310 720L313 717L311 716L315 715zM308 720L307 721L309 720zM320 712L321 711L320 712zM322 706L322 706zM326 699L326 699zM306 722L306 721zM325 693L326 693zM306 720L304 721L306 721zM326 700L325 699zM322 700L323 699L322 700zM327 695L327 695zM322 706L323 706zM324 694L324 693zM328 694L328 694zM330 690L330 689zM328 691L328 691zM323 693L322 693z" id="福建省"/><path class="leaflet-interactive" stroke="#8B908F" stroke-opacity="0.5" stroke-width="1" stroke-linecap="butt" stroke-linejoin="bevel" fill="#eee" fill-opacity="0.5" fill-rule="evenodd" d="M306 658L304 656L300 656L295 651L290 656L288 654L291 651L287 649L287 651L284 653L283 652L280 654L275 652L273 655L272 654L269 657L268 656L268 658L259 660L257 662L260 665L259 668L261 672L255 677L253 682L255 685L257 684L255 688L256 687L257 689L257 694L259 694L258 699L261 700L258 701L257 709L259 709L259 711L263 709L267 711L261 718L263 720L272 717L279 720L278 716L280 716L279 712L281 710L281 706L283 704L282 703L285 702L285 699L288 696L288 690L294 686L294 683L292 681L295 680L296 677L299 676L299 678L301 678L303 676L308 675L308 665L304 662L304 660L306 659z" id="江西省"/><path class="leaflet-interactive" stroke="#8B908F" stroke-opacity="0.5" stroke-width="1" stroke-linecap="butt" stroke-linejoin="bevel" fill="#eee" fill-opacity="0.5" fill-rule="evenodd" d="M285 587L285 584L291 583L295 590L297 588L297 590L299 590L302 587L304 587L306 589L305 590L308 591L308 588L310 586L311 587L314 582L319 581L323 575L322 574L324 574L330 568L328 568L329 565L330 568L334 567L334 563L336 563L338 561L337 560L343 557L344 558L348 555L351 555L350 556L353 557L356 554L354 554L357 549L352 548L350 546L348 548L345 548L340 546L340 544L336 542L329 544L329 546L326 549L324 549L325 550L323 552L319 552L315 550L314 547L318 544L318 542L317 543L314 538L309 539L302 536L297 542L289 543L286 547L285 546L283 548L284 549L282 549L279 552L279 555L273 560L275 565L273 571L274 572L275 570L282 567L281 569L275 572L267 582L270 582L275 586L275 588L285 588zM335 541L335 541zM334 540L335 540zM338 563L337 563zM335 538L335 537zM337 535L337 535zM328 572L328 571zM333 541L333 540zM335 536L336 535zM343 546L343 546zM343 546L343 546zM343 546L343 546zM275 570L275 570z" id="山东省"/><path class="leaflet-interactive" stroke="#8B908F" stroke-opacity="0.5" stroke-width="1" stroke-linecap="butt" stroke-linejoin="bevel" fill="#eee" fill-opacity="0.5" fill-rule="evenodd" d="M243 619L249 618L252 620L254 618L256 621L256 625L258 625L258 627L260 625L268 631L272 629L273 632L274 629L280 625L280 616L277 618L272 616L272 612L269 611L268 608L270 609L274 606L273 603L276 602L276 597L278 595L281 597L282 600L284 600L287 597L288 598L288 596L287 593L283 590L283 588L275 588L271 582L268 582L268 580L271 576L272 577L282 568L281 567L274 571L273 569L275 568L275 566L274 567L271 565L268 568L268 566L265 567L263 565L255 563L253 571L254 574L253 573L251 576L249 576L248 578L247 577L244 580L236 579L236 581L231 583L230 585L226 585L222 588L221 587L217 589L217 592L220 595L219 598L224 602L224 608L226 608L227 612L239 619L243 618zM255 620L255 620z" id="河南省"/><path class="leaflet-interactive" stroke="#8B908F" stroke-opacity="0.5" stroke-width="1" stroke-linecap="butt" stroke-linejoin="bevel" fill="#eee" fill-opacity="0.5" fill-rule="evenodd" d="M224 608L224 606L221 609L219 606L218 608L211 606L206 608L210 609L210 611L212 611L215 615L209 615L207 618L208 627L215 634L213 639L212 638L205 643L198 642L194 644L196 646L195 652L196 654L196 652L198 653L198 655L200 655L200 659L201 658L203 661L206 658L206 656L211 653L215 653L217 655L220 653L218 649L221 648L232 651L239 656L244 655L244 653L246 653L246 657L248 657L253 652L255 656L255 662L261 660L262 658L267 658L269 657L268 656L269 657L276 652L280 654L282 652L282 648L278 641L281 637L279 635L276 635L271 629L266 630L264 626L261 627L260 625L258 627L258 625L256 625L255 623L255 618L252 620L249 618L240 619L230 615L225 607zM202 642L202 642zM224 607L224 608zM243 619L244 619zM246 653L246 653z" id="湖北省"/><path class="leaflet-interactive" stroke="#8B908F" stroke-opacity="0.5" stroke-width="1" stroke-linecap="butt" stroke-linejoin="bevel" fill="#eee" fill-opacity="0.5" fill-rule="evenodd" d="M236 717L237 712L243 712L243 714L246 715L246 710L249 708L251 708L252 710L256 710L258 707L258 702L259 700L261 700L258 699L259 695L256 693L257 685L253 683L255 677L258 676L258 674L261 671L259 669L260 666L257 662L254 661L255 655L253 653L248 657L246 657L246 653L244 653L244 655L239 656L233 651L228 651L221 648L218 649L220 653L219 654L217 655L215 653L211 653L206 656L204 661L205 667L203 668L205 668L205 680L207 680L199 688L207 688L206 690L208 692L205 693L206 696L204 698L206 698L206 701L210 703L212 699L214 699L213 701L216 702L220 697L227 698L226 702L229 703L227 709L223 714L224 715L227 712L229 714L230 719L232 717L235 717zM207 692L207 692z" id="湖南省"/><path class="leaflet-interactive" stroke="#8B908F" stroke-opacity="0.5" stroke-width="1" stroke-linecap="butt" stroke-linejoin="bevel" fill="#eee" fill-opacity="0.5" fill-rule="evenodd" d="M253 749L255 743L254 742L257 746L261 744L263 744L263 746L265 745L264 744L266 742L268 745L271 741L275 743L277 741L279 742L286 740L287 737L290 736L291 732L292 733L294 731L291 726L292 724L289 720L290 718L287 719L285 717L286 716L284 717L279 715L278 720L275 717L273 717L268 718L268 720L265 719L263 721L260 718L263 716L264 713L266 713L264 709L258 711L259 709L252 710L248 708L247 710L245 710L247 712L247 715L245 715L242 712L238 712L234 719L236 721L236 723L234 724L235 727L231 729L231 731L229 731L229 739L221 745L222 748L218 750L217 749L217 753L214 752L211 756L210 755L211 758L209 766L213 773L217 773L219 771L218 767L217 768L215 764L217 761L224 758L236 756L236 754L239 755L243 754L244 752L247 753L248 750L249 753L253 749zM292 734L294 734L293 733zM245 754L244 757L245 755zM241 756L243 756L241 756zM261 751L261 751zM217 761L219 763L220 761L217 761zM240 755L241 755zM218 763L217 762L215 764L218 765L219 763zM255 752L255 751zM255 752L255 752zM248 753L248 753zM256 746L256 746zM260 751L260 751zM260 752L259 751zM290 766L289 767L291 767L291 769L290 766zM247 753L247 753zM217 767L217 767zM220 764L220 765zM219 772L219 771zM280 762L281 763L280 762zM280 764L280 764zM279 742L279 742zM279 742L279 742z" id="广东省"/><path class="leaflet-interactive" stroke="#8B908F" stroke-opacity="0.5" stroke-width="1" stroke-linecap="butt" stroke-linejoin="bevel" fill="#eee" fill-opacity="0.5" fill-rule="evenodd" d="M207 701L204 705L200 705L202 705L201 708L199 706L197 710L194 707L190 712L187 713L186 710L185 711L181 707L179 707L179 710L177 712L170 714L167 719L159 714L153 719L150 717L150 720L152 722L157 721L159 726L168 725L169 732L165 732L163 734L164 735L162 735L162 737L166 740L169 739L171 741L177 741L173 746L175 748L175 752L176 751L183 756L184 755L194 757L197 755L202 756L203 759L210 758L212 753L216 753L216 749L220 749L220 745L221 746L221 744L225 743L229 739L228 734L229 731L231 731L231 729L235 727L234 724L236 722L236 717L232 717L230 719L228 712L224 715L223 714L228 708L227 705L229 704L226 702L227 699L224 697L220 697L216 702L213 701L213 699L210 701L211 703L207 701zM157 715L157 715zM202 763L202 763z" id="广西壮族自治区"/><path class="leaflet-interactive" stroke="#8B908F" stroke-opacity="0.5" stroke-width="1" stroke-linecap="butt" stroke-linejoin="bevel" fill="#eee" fill-opacity="0.5" fill-rule="evenodd" d="M214 775L209 775L203 778L197 784L197 794L208 798L214 795L216 792L218 792L220 784L224 780L224 775L214 775zM229 811L230 810L229 811zM300 833L302 834L300 833zM232 821L233 821zM231 821L230 822L232 820zM235 820L235 819zM232 818L233 818zM238 812L238 812zM241 824L242 823L240 823zM240 820L241 820zM239 813L239 812zM230 818L230 818zM230 818L231 818zM232 817L232 817zM241 818L242 817L241 818zM233 823L233 823zM266 822L266 821zM260 823L261 823zM263 828L264 828zM259 823L260 823zM289 819L289 819zM247 782L246 782zM263 823L263 823zM256 786L256 785zM274 848L274 847zM256 830L257 830zM238 815L238 814zM238 827L238 827zM257 825L258 825zM269 823L268 824zM243 819L243 818zM226 777L226 777zM243 820L243 819zM265 828L265 828z" id="海南省"/><path class="leaflet-interactive" stroke="#8B908F" stroke-opacity="0.5" stroke-width="1" stroke-linecap="butt" stroke-linejoin="bevel" fill="#eee" fill-opacity="0.5" fill-rule="evenodd" d="M171 669L173 669L172 666L174 668L173 670L175 670L177 668L176 666L180 664L183 665L183 661L187 660L188 663L192 662L195 668L197 668L196 671L197 672L198 669L198 673L201 674L205 668L203 668L205 666L205 663L202 660L203 659L200 658L199 654L198 655L198 653L195 652L196 647L194 644L202 641L203 643L205 643L211 638L213 638L215 634L214 631L209 629L209 627L204 627L202 624L194 621L195 622L193 624L196 627L190 634L190 638L183 640L184 641L180 649L175 650L173 646L170 647L165 645L162 648L164 652L162 652L162 654L159 655L161 658L160 659L164 659L164 663L170 665L171 669zM202 642L202 642zM162 648L162 648zM202 642L202 642zM179 649L179 649z" id="重庆市"/><path class="leaflet-interactive" stroke="#8B908F" stroke-opacity="0.5" stroke-width="1" stroke-linecap="butt" stroke-linejoin="bevel" fill="#eee" fill-opacity="0.5" fill-rule="evenodd" d="M112 686L112 688L115 691L114 692L116 692L115 695L117 699L118 698L123 701L128 697L130 699L134 695L131 688L132 685L139 678L138 675L143 672L143 667L148 668L147 671L150 673L148 675L151 678L158 675L159 680L170 679L171 678L169 674L167 675L163 671L163 669L167 666L171 670L171 668L169 664L164 663L164 659L160 659L161 658L159 656L164 651L164 649L162 648L165 644L169 647L174 646L175 650L180 649L184 642L183 640L187 638L188 639L190 637L190 633L196 627L193 624L195 622L194 621L196 621L188 621L186 618L181 618L179 616L180 615L176 613L172 615L165 612L163 614L160 611L161 613L159 615L150 614L147 611L149 611L149 605L147 605L145 601L138 599L137 600L132 592L123 597L127 602L127 604L125 604L124 607L123 606L121 608L119 606L121 604L119 602L119 606L117 608L115 608L114 606L111 607L113 614L107 614L105 616L103 613L100 615L100 611L98 611L97 609L95 613L92 611L90 612L90 610L85 607L81 596L76 595L75 593L72 594L73 596L69 598L69 602L73 604L70 608L71 609L69 613L79 619L83 629L86 631L85 633L83 633L87 640L87 654L90 672L92 674L92 670L95 665L100 670L99 671L101 672L99 674L103 680L103 678L106 677L110 685L112 686zM170 647L170 647zM178 649L178 649zM162 647L162 647z" id="四川省"/><path class="leaflet-interactive" stroke="#8B908F" stroke-opacity="0.5" stroke-width="1" stroke-linecap="butt" stroke-linejoin="bevel" fill="#eee" fill-opacity="0.5" fill-rule="evenodd" d="M204 670L201 674L198 673L199 671L196 670L197 669L196 667L194 667L192 662L189 663L187 662L187 660L183 660L183 664L181 666L180 664L176 666L176 670L173 670L174 667L172 665L173 668L171 670L167 666L163 669L163 671L167 675L170 675L170 679L161 679L159 680L158 684L157 683L155 685L151 685L150 683L146 685L144 684L140 688L142 690L141 694L144 695L146 693L149 693L152 696L150 698L151 699L148 706L150 708L151 707L150 709L154 712L153 711L150 717L152 719L156 717L158 714L162 717L167 718L169 717L170 714L179 711L178 710L181 707L185 711L186 710L187 713L190 712L192 710L191 709L193 709L193 707L197 710L199 706L201 708L202 705L200 705L204 705L207 701L206 698L204 698L206 696L205 693L207 691L207 687L202 687L200 689L199 688L203 683L207 681L205 679L206 672L204 672L204 670zM207 691L206 691zM207 692L207 692z" id="贵州省"/><path class="leaflet-interactive" stroke="#8B908F" stroke-opacity="0.5" stroke-width="1" stroke-linecap="butt" stroke-linejoin="bevel" fill="#eee" fill-opacity="0.5" fill-rule="evenodd" d="M159 680L158 675L151 678L148 676L149 673L147 669L149 668L143 668L143 671L138 674L138 679L134 684L132 684L131 688L134 695L130 699L128 698L129 697L120 701L118 698L117 699L115 695L116 692L114 692L115 691L110 685L108 679L106 677L103 678L103 680L101 678L99 675L99 673L101 673L99 671L100 670L95 665L93 667L94 668L92 670L92 674L90 672L89 660L87 660L88 663L86 664L86 666L85 663L83 663L83 669L85 672L83 674L81 674L79 671L78 672L79 680L81 682L81 680L84 681L84 704L82 703L81 706L79 706L78 709L74 711L74 716L71 717L71 721L73 723L71 727L72 728L78 725L86 725L84 727L87 735L86 736L88 738L91 737L94 740L92 740L93 741L89 749L96 750L99 752L98 753L99 755L101 755L101 758L107 757L111 754L112 759L118 762L120 760L118 759L119 753L116 748L118 747L118 745L124 746L127 742L133 746L137 742L139 744L142 743L144 745L146 741L149 743L154 740L154 737L159 735L161 735L162 737L162 735L164 735L163 734L165 732L169 732L168 725L161 726L158 724L157 721L152 722L150 720L150 716L154 711L151 709L151 707L150 708L148 706L148 704L149 705L152 696L149 692L148 694L141 694L142 690L140 688L144 683L145 685L150 683L150 685L154 685L157 683L158 684L159 681z" id="云南省"/><path class="leaflet-interactive" stroke="#8B908F" stroke-opacity="0.5" stroke-width="1" stroke-linecap="butt" stroke-linejoin="bevel" fill="#eee" fill-opacity="0.5" fill-rule="evenodd" d="M-18 567L-24 564L-25 565L-27 563L-28 564L-31 562L-37 562L-57 566L-61 572L-62 571L-68 573L-69 571L-77 574L-79 577L-93 577L-95 573L-98 574L-101 572L-102 575L-104 575L-105 578L-108 579L-116 577L-126 578L-125 580L-129 583L-128 584L-130 585L-131 589L-137 591L-140 590L-140 592L-144 596L-144 601L-137 611L-137 616L-140 619L-143 616L-143 614L-147 616L-147 621L-143 625L-143 632L-138 637L-132 637L-127 643L-126 642L-117 646L-116 650L-114 650L-115 649L-112 644L-106 646L-105 645L-105 647L-102 650L-97 654L-92 655L-90 659L-87 661L-83 659L-80 665L-78 665L-74 669L-71 667L-70 672L-64 672L-60 677L-59 674L-56 677L-52 675L-47 678L-36 678L-36 676L-35 677L-30 674L-28 676L-29 683L-26 686L-24 684L-25 681L-18 673L-14 673L-8 676L-7 675L-3 678L0 675L2 676L4 679L3 682L6 682L9 685L9 691L15 689L26 690L34 681L45 677L46 674L51 672L59 674L61 677L64 677L66 679L69 676L69 672L71 672L70 671L72 669L77 674L79 672L78 671L80 672L81 675L84 672L83 663L85 663L86 666L87 665L86 664L88 660L88 649L86 641L87 640L83 634L83 632L86 632L82 628L78 619L74 616L68 616L68 621L63 624L61 623L63 627L59 627L58 624L56 624L56 629L53 626L51 628L49 626L48 627L46 623L47 621L45 621L45 619L43 620L44 619L38 615L34 617L33 616L32 618L28 616L25 617L22 614L11 614L9 611L5 611L2 608L-5 609L-11 606L-12 604L-14 604L-15 600L-19 596L-17 593L-17 585L-20 584L-21 577L-18 576L-17 571L-22 570L-22 568L-19 567z" id="西藏自治区"/><path class="leaflet-interactive" stroke="#8B908F" stroke-opacity="0.5" stroke-width="1" stroke-linecap="butt" stroke-linejoin="bevel" fill="#eee" fill-opacity="0.5" fill-rule="evenodd" d="M217 588L215 587L219 575L217 555L222 546L218 538L219 535L221 535L223 532L224 525L226 524L227 521L225 517L220 521L215 519L214 522L211 521L212 523L201 535L200 537L202 539L200 541L199 539L199 545L191 545L187 542L183 544L181 549L182 556L187 557L190 560L197 563L197 577L195 579L187 578L186 579L188 583L184 584L181 584L178 581L173 581L174 586L171 588L175 592L173 592L174 594L172 596L174 601L173 603L165 603L164 606L167 607L165 611L161 611L162 614L165 612L172 615L176 613L179 614L181 618L183 616L189 621L195 620L200 624L208 627L208 615L213 616L214 613L210 611L209 608L207 608L209 606L218 608L219 606L219 608L221 609L224 606L224 602L220 598L220 594L217 592L217 588zM224 603L224 604zM168 613L168 613z" id="陕西省"/><path class="leaflet-interactive" stroke="#8B908F" stroke-opacity="0.5" stroke-width="1" stroke-linecap="butt" stroke-linejoin="bevel" fill="#eee" fill-opacity="0.5" fill-rule="evenodd" d="M173 572L173 576L171 579L169 576L166 577L168 576L165 576L165 574L161 572L159 569L162 566L158 559L159 556L155 554L153 551L151 551L152 548L146 548L138 542L138 535L143 531L144 527L147 524L145 519L138 520L133 524L127 522L122 523L120 524L122 527L119 530L115 529L112 526L113 525L108 525L108 519L104 520L102 516L95 512L92 512L96 511L98 508L101 507L102 501L99 497L89 498L89 500L87 499L85 500L85 502L84 499L80 502L80 497L72 489L74 486L67 468L58 469L55 471L53 473L55 480L45 487L43 484L39 488L37 488L29 496L28 501L18 502L16 516L12 522L13 525L16 523L20 523L21 527L29 527L28 528L30 530L34 529L37 534L44 534L47 536L50 534L56 538L58 536L61 537L61 533L65 531L64 525L66 522L77 529L79 525L82 526L85 524L89 526L88 527L97 535L101 537L99 533L100 532L104 536L108 538L109 537L109 539L112 542L117 542L123 546L129 553L127 553L127 555L130 558L128 558L133 565L133 569L129 572L131 575L130 576L128 574L126 577L125 576L126 579L121 585L121 588L124 591L120 595L110 591L107 594L112 599L112 601L116 600L117 603L120 602L121 604L119 606L121 608L123 606L124 607L125 604L127 604L123 597L129 595L128 594L131 592L135 595L135 599L146 602L149 606L148 611L151 614L159 615L161 611L165 611L167 607L164 606L165 603L174 602L172 597L175 591L171 589L173 586L173 582L177 581L183 584L188 582L186 579L187 578L195 579L197 577L195 570L198 568L198 566L196 562L185 557L180 552L175 552L175 557L171 561L173 561L173 565L178 566L178 571L176 573L173 572zM168 575L168 575zM131 563L131 564zM168 576L168 577zM173 572L173 572z" id="甘肃省"/><path class="leaflet-interactive" stroke="#8B908F" stroke-opacity="0.5" stroke-width="1" stroke-linecap="butt" stroke-linejoin="bevel" fill="#eee" fill-opacity="0.5" fill-rule="evenodd" d="M131 563L131 561L128 558L130 558L127 554L128 551L121 544L120 545L117 542L114 543L109 539L109 537L108 538L107 536L103 536L100 532L99 533L101 537L97 535L88 527L89 526L85 524L83 526L80 525L77 529L66 522L64 524L64 532L63 531L61 533L61 536L57 536L57 538L53 537L50 534L48 536L44 534L37 535L35 529L28 529L29 528L27 527L22 527L21 523L16 523L10 526L-7 530L-10 533L-14 533L-12 537L-10 535L-9 544L-2 548L0 554L-4 556L-5 555L-7 558L-6 561L-3 561L-2 567L-5 568L-14 565L-16 567L-21 568L-22 570L-17 571L-18 576L-21 577L-20 583L-17 584L-17 594L-19 596L-15 600L-15 602L-7 608L2 608L5 611L9 611L11 614L16 613L20 615L21 614L25 617L28 616L32 618L38 614L41 618L47 621L46 624L48 627L52 626L56 629L55 626L57 624L61 628L62 623L66 623L68 619L69 620L68 616L73 616L69 614L69 610L71 610L70 608L73 604L69 602L69 598L71 598L73 596L72 594L75 593L77 595L81 595L85 607L89 609L90 612L91 611L96 613L97 610L100 611L100 615L102 613L104 613L106 616L113 614L111 607L114 606L114 608L117 608L119 604L116 600L113 601L112 598L109 597L108 592L109 591L120 595L124 591L121 588L121 584L126 580L125 576L126 577L127 574L130 576L131 575L129 572L132 571L132 567L134 565L131 564z" id="青海省"/><path class="leaflet-interactive" stroke="#8B908F" stroke-opacity="0.5" stroke-width="1" stroke-linecap="butt" stroke-linejoin="bevel" fill="#eee" fill-opacity="0.5" fill-rule="evenodd" d="M181 553L183 544L186 543L181 538L173 536L178 526L175 520L170 522L166 528L166 536L164 538L164 543L148 548L152 548L151 551L158 554L160 558L158 558L158 560L162 566L159 569L171 579L173 577L173 572L175 573L178 571L178 567L174 565L171 560L172 561L173 558L175 557L173 555L174 552L181 553zM168 576L166 576L168 576zM168 576L168 576z" id="宁夏回族自治区"/><path class="leaflet-interactive" stroke="#8B908F" stroke-opacity="0.5" stroke-width="1" stroke-linecap="butt" stroke-linejoin="bevel" fill="#eee" fill-opacity="0.5" fill-rule="evenodd" d="M58 469L52 461L48 449L46 449L47 446L41 445L25 434L2 432L-4 430L-6 428L-7 422L-3 417L-5 412L-3 410L-3 406L-9 396L-10 391L-14 388L-14 386L-18 387L-21 383L-26 384L-27 382L-29 382L-31 378L-38 373L-37 372L-40 369L-40 363L-44 365L-49 364L-52 366L-52 372L-56 376L-57 375L-64 378L-66 382L-64 397L-67 400L-69 400L-72 403L-74 401L-84 401L-93 397L-94 398L-103 422L-103 425L-99 428L-100 431L-103 429L-106 430L-110 428L-114 430L-115 429L-117 431L-123 431L-130 435L-124 439L-124 449L-120 457L-120 463L-124 465L-122 467L-124 467L-127 471L-125 477L-127 477L-127 479L-133 483L-144 487L-144 489L-145 488L-149 490L-154 494L-153 495L-164 495L-166 497L-167 502L-170 505L-171 504L-177 506L-179 502L-178 501L-183 504L-187 503L-187 506L-197 510L-199 513L-198 517L-203 520L-199 525L-200 530L-198 532L-193 530L-187 534L-187 545L-184 548L-184 550L-192 552L-190 554L-187 553L-187 555L-181 555L-180 558L-176 558L-174 561L-175 566L-172 570L-173 571L-168 570L-168 572L-164 574L-158 576L-151 576L-149 586L-142 591L-130 589L-128 584L-129 583L-124 576L-120 578L-113 577L-108 579L-105 578L-106 576L-104 576L-101 572L-98 574L-95 573L-93 577L-79 577L-76 574L-69 571L-66 573L-62 572L-59 570L-57 566L-52 564L-50 565L-44 562L-43 564L-31 562L-20 567L-16 567L-14 565L-5 568L-2 567L-3 562L-7 559L-7 557L-5 555L-4 556L0 554L0 552L-2 548L-8 544L-9 535L-12 537L-14 534L-10 533L-7 530L4 528L11 525L16 516L18 502L28 501L29 496L37 488L39 488L43 484L45 486L53 482L55 480L53 474L55 471z" id="新疆维吾尔自治区"/><path class="leaflet-interactive" stroke="#8B908F" stroke-opacity="0.5" stroke-width="1" stroke-linecap="butt" stroke-linejoin="bevel" fill="#eee" fill-opacity="0.5" fill-rule="evenodd" d="M331 746L334 748L334 752L336 753L337 745L343 737L345 726L348 721L347 717L349 714L344 710L337 715L329 729L327 730L327 738L330 745zM378 703L378 702zM366 705L366 705zM322 732L322 733zM368 703L368 702zM321 731L320 732L321 731zM321 734L321 735zM321 731L322 731zM350 706L350 706zM343 743L344 743zM344 750L343 751L345 751L344 750zM350 708L350 708zM320 736L320 736zM330 747L331 747z" id="台湾省"/><path class="leaflet-interactive" stroke="#8B908F" stroke-opacity="0.5" stroke-width="1" stroke-linecap="butt" stroke-linejoin="bevel" fill="#eee" fill-opacity="0.5" fill-rule="evenodd" d="M258 745L256 749L259 747L261 749L261 747L263 747L260 746L262 745L259 745zM260 749L259 748L260 749zM262 747L262 747zM262 747L262 747zM262 747L262 747zM262 748L262 748zM262 747L262 747zM262 747L262 747zM262 748L262 748z" id="香港特别行政区"/><path class="leaflet-interactive" stroke="#8B908F" stroke-opacity="0.5" stroke-width="1" stroke-linecap="butt" stroke-linejoin="bevel" fill="#eee" fill-opacity="0.5" fill-rule="evenodd" d="M253 750L253 750zM253 749L253 749z" id="澳门特别行政区"/><path class="leaflet-interactive" stroke="#8B908F" stroke-opacity="0.5" stroke-width="1" stroke-linecap="butt" stroke-linejoin="bevel" fill="#eee" fill-opacity="0.5" fill-rule="evenodd" d="M355 733L358 719L355 733zM340 766L348 755L340 766zM320 800L327 787L320 800zM316 835L316 823L316 835zM211 833L205 821L210 830z" id="100000_JD"/></g></svg>